<?xml version="1.0" standalone="no"?>
<!DOCTYPE svg PUBLIC "-//W3C//DTD SVG 20010904//EN"
 "http://www.w3.org/TR/2001/REC-SVG-20010904/DTD/svg10.dtd">
<svg version="1.0" xmlns="http://www.w3.org/2000/svg"
 width="56.000000pt" height="56.000000pt" viewBox="0 0 56.000000 56.000000"
 preserveAspectRatio="xMidYMid meet">

<g transform="translate(0.000000,56.000000) scale(0.100000,-0.100000)"
fill="#000000" stroke="none">
<path d="M55 410 c-13 -26 -13 -29 7 -42 28 -19 17 -58 -18 -58 -20 0 -24 -5
-24 -30 0 -25 4 -30 24 -30 35 0 46 -38 17 -59 l-21 -16 25 -40 c100 -153 321
-154 430 -2 l28 40 -21 16 c-29 22 -20 61 14 61 20 0 24 5 24 30 0 25 -4 30
-24 30 -35 0 -46 39 -18 58 18 12 19 17 10 38 -13 28 -19 29 -58 9 -35 -18
-34 -13 -15 -58 34 -82 12 -169 -57 -220 -36 -27 -122 -34 -169 -14 -84 35
-124 152 -81 235 l20 38 -39 21 -39 21 -15 -28z m39 -128 c2 -4 -12 -8 -32 -9
-36 -1 -36 -1 -7 7 17 4 31 8 32 9 1 0 4 -3 7 -7z m431 -2 c-3 -5 -14 -10 -23
-9 -14 0 -13 2 3 9 27 11 27 11 20 0z m-428 -92 c-6 -19 25 -69 40 -64 7 3 18
-3 25 -13 19 -26 58 -46 58 -29 0 8 4 7 10 -3 8 -13 18 -15 52 -9 24 5 46 6
51 3 13 -8 47 8 47 23 0 8 5 12 10 9 6 -3 13 1 16 10 4 9 13 14 21 10 11 -4
13 -1 9 10 -3 9 -2 13 3 10 10 -5 26 12 26 29 0 5 6 11 13 14 44 14 -53 -103
-103 -124 -26 -11 -125 -20 -147 -14 -5 2 -11 3 -15 4 -34 8 -53 20 -53 32 0
8 -4 13 -8 10 -11 -6 -45 24 -69 60 -14 22 -14 27 -2 35 19 12 21 11 16 -3z"/>
<path d="M131 270 c-2 -74 68 -140 149 -140 79 0 151 66 149 135 l-1 30 -9
-31 c-20 -70 -97 -114 -172 -100 -40 7 -95 58 -103 95 -10 45 -12 47 -13 11z"/>
<path d="M188 273 c18 -2 45 -2 60 0 15 2 0 4 -33 4 -33 0 -45 -2 -27 -4z"/>
<path d="M318 273 c18 -2 45 -2 60 0 15 2 0 4 -33 4 -33 0 -45 -2 -27 -4z"/>
</g>
</svg>
